<svg width="89" height="32" viewBox="0 0 89 32" fill="none" xmlns="http://www.w3.org/2000/svg">
<path d="M52.5877 3.63548C52.5503 3.62968 52.5124 3.62568 52.4739 3.62365C51.858 3.59137 51.3322 4.06406 51.2998 4.67986C51.2675 5.29576 51.7411 5.8217 52.357 5.85398C52.3955 5.85599 52.4337 5.855 52.4714 5.85314L52.4562 6.14375C52.4189 6.13796 52.3809 6.13395 52.3424 6.13192C51.7265 6.09964 51.2006 6.5732 51.1683 7.18911C51.1361 7.80495 51.6097 8.32998 52.2255 8.36226C52.2641 8.36427 52.3022 8.36425 52.3399 8.36239L52.3247 8.653C52.2872 8.64718 52.2486 8.64315 52.2099 8.64112C51.5942 8.60906 51.0691 9.08258 51.0368 9.69836C51.0045 10.3141 51.4773 10.84 52.093 10.8724C52.1317 10.8745 52.1705 10.8735 52.2084 10.8716L52.1932 11.1623C52.1559 11.1565 52.1179 11.1525 52.0794 11.1504C51.4635 11.1181 50.9376 11.5917 50.9053 12.2076C50.8732 12.8234 51.3467 13.3485 51.9625 13.3808C52.001 13.3828 52.0392 13.3827 52.0769 13.3809L52.0617 13.6715C52.0242 13.6657 51.9856 13.6617 51.9469 13.6596C51.3312 13.6276 50.806 14.1011 50.7738 14.7169C50.7416 15.3325 51.2144 15.8574 51.83 15.89C51.8688 15.892 51.9076 15.891 51.9455 15.8892L51.9302 16.1808C51.8927 16.1749 51.8542 16.1709 51.8154 16.1689C51.1997 16.1368 50.6745 16.6103 50.6423 17.2261C50.6103 17.8417 51.083 18.3668 51.6985 18.3992C51.7373 18.4012 51.776 18.4003 51.814 18.3984L51.7987 18.69C51.7612 18.6842 51.7226 18.6802 51.6839 18.6781C51.0682 18.6461 50.543 19.1196 50.5108 19.7354C50.4787 20.351 50.9514 20.876 51.567 20.9085C51.6058 20.9105 51.6445 20.9096 51.6825 20.9077L51.6672 21.1993C51.6299 21.1935 51.5919 21.1895 51.5534 21.1874C50.9376 21.1552 50.4118 21.6279 50.3793 22.2436C50.347 22.8596 50.8206 23.3855 51.4365 23.4178C51.475 23.4198 51.5132 23.4198 51.5509 23.4179L51.5357 23.7085C51.4982 23.7027 51.4596 23.6987 51.4209 23.6966C50.8053 23.6646 50.2803 24.1373 50.2478 24.7529C50.2155 25.3687 50.6883 25.8945 51.304 25.927C51.3428 25.929 51.3815 25.9281 51.4195 25.9262L51.2889 28.4169L3.90278 25.9335C1.74728 25.8203 0.0915544 23.9807 0.204522 21.8251L0.44167 17.3001C2.36561 17.1054 3.91289 15.5336 4.01724 13.5426C4.12159 11.5515 2.74732 9.82466 0.854122 9.43003L1.11187 4.51198C1.22501 2.35659 3.06384 0.700898 5.21925 0.81367L52.6054 3.29707L52.5877 3.63548Z" fill="#00CC68"/>
<path d="M52.6135 3.69137C52.651 3.68553 52.6894 3.68153 52.7282 3.67949C53.3441 3.64728 53.8691 4.12087 53.9014 4.73673C53.9335 5.3525 53.4609 5.87749 52.8451 5.90983C52.8063 5.91187 52.7677 5.91093 52.7297 5.90903L52.745 6.20063C52.7826 6.19478 52.8209 6.19078 52.8597 6.18874C53.4755 6.15655 54.0004 6.62932 54.0328 7.24501C54.0651 7.86087 53.5925 8.38673 52.9766 8.41908C52.9378 8.42112 52.8992 8.42018 52.8612 8.41829L52.8765 8.70988C52.914 8.70403 52.9525 8.70003 52.9912 8.698C53.6069 8.66585 54.1318 9.13866 54.1643 9.75426C54.1966 10.3701 53.7239 10.8959 53.1081 10.9283C53.0693 10.9304 53.0307 10.9294 52.9927 10.9275L53.008 11.2191C53.0456 11.2133 53.0839 11.2093 53.1227 11.2072C53.7386 11.175 54.2636 11.6486 54.2959 12.2645C54.328 12.8802 53.8554 13.4053 53.2396 13.4376C53.2008 13.4396 53.1622 13.4387 53.1242 13.4368L53.1395 13.7284C53.177 13.7225 53.2155 13.7185 53.2542 13.7165C53.8701 13.6843 54.3951 14.1579 54.4274 14.7737C54.4595 15.3895 53.9868 15.9144 53.3711 15.9468C53.3323 15.9489 53.2937 15.9479 53.2557 15.946L53.271 16.2376C53.3085 16.2318 53.347 16.2278 53.3858 16.2258C54.0014 16.1936 54.5264 16.6664 54.5589 17.282C54.5911 17.8979 54.1184 18.4237 53.5026 18.4561C53.4638 18.4581 53.4252 18.4572 53.3872 18.4553L53.4025 18.7469C53.4401 18.741 53.4784 18.737 53.5173 18.735C54.1331 18.7028 54.6581 19.1764 54.6904 19.7922C54.7224 20.4079 54.2499 20.933 53.6341 20.9653C53.5953 20.9674 53.5567 20.9664 53.5187 20.9645L53.534 21.2561C53.5716 21.2503 53.6099 21.2463 53.6488 21.2443C54.2645 21.212 54.7894 21.6848 54.8219 22.3005C54.8541 22.9164 54.3815 23.4423 53.7656 23.4746C53.7268 23.4766 53.6882 23.4757 53.6502 23.4738L53.6655 23.7654C53.7031 23.7595 53.7414 23.7555 53.7803 23.7535C54.396 23.7213 54.9209 24.1941 54.9534 24.8098C54.9856 25.4257 54.513 25.9515 53.8972 25.9838C53.8583 25.9859 53.8198 25.9849 53.7817 25.983L53.9123 28.4738L84.9312 26.8481C87.0867 26.735 88.7424 24.8953 88.6295 22.7398L88.3592 17.5828C88.2336 17.6015 88.1063 17.6156 87.977 17.6224C85.7776 17.7376 83.9008 16.0486 83.7855 13.8493C83.6702 11.6499 85.3601 9.77299 87.5595 9.65772C87.6888 9.65096 87.817 9.65072 87.9438 9.65617L87.7221 5.42662C87.609 3.27123 85.7701 1.61554 83.6147 1.72831L52.5958 3.35395L52.6135 3.69137Z" fill="#00CC68"/>
<circle cx="52.9037" cy="10.3697" r="0.920267" fill="#00CC68"/>
<circle cx="53.2103" cy="15.8912" r="0.920267" fill="#00CC68"/>
<circle cx="51.6752" cy="24.1739" r="0.920267" fill="white"/>
<ellipse cx="53.0103" cy="12.9936" rx="0.920267" ry="0.460134" transform="rotate(-23.0122 53.0103 12.9936)" fill="#00CC68"/>
<ellipse cx="52.7027" cy="21.5829" rx="0.920267" ry="0.460134" transform="rotate(-23.0122 52.7027 21.5829)" fill="#05211C"/>
<ellipse cx="51.4756" cy="30.7856" rx="0.920267" ry="0.460134" transform="rotate(21.9427 51.4756 30.7856)" fill="#00CC68"/>
<ellipse cx="54.5352" cy="30.2869" rx="0.920267" ry="0.460134" transform="rotate(-34.2695 54.5352 30.2869)" fill="white"/>
<path d="M9.17721 17.8559L9.25596 11.4073L11.0708 11.4295L12.8002 16.1864L14.5899 11.4725L16.3679 11.4942L16.2891 17.9428L14.9718 17.9267L15.0245 13.6061L13.2951 17.9062L12.1712 17.8925L10.5473 13.5515L10.4946 17.872L9.17721 17.8559ZM21.817 16.9139L21.9644 16.9157L21.951 18.012L21.2877 18.0039C20.6152 17.9956 20.4073 17.6706 20.422 17.2193C20.084 17.7404 19.6012 18.0385 18.8642 18.0295C17.8417 18.017 17.1106 17.5198 17.1217 16.617C17.1339 15.6128 17.8963 15.0509 19.315 15.0682L20.2547 15.0797L20.2575 14.8494C20.2627 14.4256 19.962 14.1455 19.4185 14.1389C18.9118 14.1327 18.5681 14.3589 18.5086 14.7083L17.2557 14.693C17.3591 13.7729 18.2141 13.1752 19.4669 13.1905C20.7935 13.2067 21.5509 13.8056 21.5371 14.9387L21.5166 16.6154C21.5136 16.8641 21.6144 16.9114 21.817 16.9139ZM20.243 16.0378L20.2441 15.9457L19.2952 15.9341C18.7517 15.9274 18.4358 16.1447 18.4309 16.5408C18.4269 16.8725 18.6915 17.0876 19.1244 17.0929C19.8061 17.1012 20.2259 16.6825 20.243 16.0378ZM22.4535 18.0181L22.5323 11.5695L23.8312 11.5853L23.7858 15.3071L25.662 13.3214L27.1267 13.3393L25.3997 15.1794L27.161 18.0756L25.6594 18.0572L24.4852 16.1265L23.7665 16.8824L23.7525 18.034L22.4535 18.0181ZM29.5789 18.1604C28.0036 18.1412 27.0663 17.1807 27.0842 15.7159C27.1022 14.242 28.0812 13.2957 29.5459 13.3136C30.9646 13.3309 31.9119 14.227 31.9133 15.6183C31.9117 15.7565 31.9005 15.913 31.8711 16.06L28.4349 16.0181L28.4341 16.0825C28.4535 16.7554 28.8816 17.166 29.5356 17.174C30.0607 17.1804 30.4321 16.9546 30.548 16.5138L31.8285 16.5294C31.6699 17.4488 30.841 18.1758 29.5789 18.1604ZM28.4729 15.1709L30.6101 15.197C30.5251 14.6155 30.1329 14.2882 29.5433 14.281C28.9814 14.2741 28.5535 14.6098 28.4729 15.1709ZM32.6938 18.1432L32.7726 11.6945L34.5874 11.7167L36.3168 16.4736L38.1065 11.7597L39.8845 11.7814L39.8057 18.23L38.4884 18.2139L38.5411 13.8933L36.8117 18.1934L35.6878 18.1797L34.064 13.8387L34.0112 18.1592L32.6938 18.1432ZM42.1693 18.2865L40.4034 13.5015L41.7853 13.5183L42.8956 16.9041L44.0607 13.5461L45.4518 13.5631L43.2853 18.9451C42.981 19.7245 42.7367 20.1085 41.9997 20.0995L40.7376 20.0841L40.751 18.9879L41.4696 18.9966C41.8012 19.0007 41.9128 18.9191 42.0457 18.5983L42.1693 18.2865Z" fill="white"/>
<path d="M60.5026 18.942L60.1868 12.5006L62.8093 12.372C64.208 12.3035 65.1785 13.0953 65.2426 14.402C65.3062 15.6994 64.4178 16.5824 63.0191 16.6509L61.7769 16.7119L61.8829 18.8743L60.5026 18.942ZM62.7369 13.5286L61.6235 13.5832L61.7205 15.5616L62.8339 15.507C63.478 15.4754 63.8736 15.0779 63.8439 14.4705C63.8136 13.854 63.381 13.497 62.7369 13.5286ZM70.3023 17.3639L70.4496 17.3567L70.5032 18.4517L69.8407 18.4842C69.169 18.5171 68.9415 18.2054 68.9286 17.7541C68.6231 18.2948 68.1594 18.6219 67.4233 18.658C66.4019 18.7081 65.6418 18.2565 65.5976 17.3547C65.5484 16.3517 66.275 15.7442 67.6921 15.6747L68.6307 15.6287L68.6194 15.3986C68.5987 14.9754 68.2815 14.7142 67.7386 14.7408C67.2325 14.7656 66.9033 15.0124 66.8652 15.3647L65.6137 15.4261C65.6606 14.5014 66.4774 13.8525 67.7289 13.7912C69.054 13.7262 69.8466 14.2777 69.9021 15.4096L69.9842 17.0843C69.9964 17.3328 70.0999 17.3738 70.3023 17.3639ZM68.6776 16.5857L68.6731 16.4937L67.7253 16.5401C67.1824 16.5668 66.8804 16.8029 66.8998 17.1986C66.916 17.5299 67.1932 17.7285 67.6257 17.7073C68.3067 17.6739 68.7 17.2303 68.6776 16.5857ZM70.7072 16.8644L71.9402 16.8039C72.0066 17.2158 72.3794 17.4834 73.0144 17.4523C73.5573 17.4257 73.88 17.2346 73.8637 16.9033C73.8448 16.5169 73.5214 16.505 72.7526 16.4413C71.6421 16.3666 70.7741 16.1601 70.7263 15.1847C70.6803 14.2461 71.469 13.5894 72.6841 13.539C73.954 13.4768 74.8557 13.9952 74.9675 14.9583L73.7252 15.0192C73.6699 14.6437 73.2998 14.4313 72.7753 14.457C72.2692 14.4818 71.9469 14.6821 71.9618 14.9857C71.9794 15.3446 72.3861 15.3616 73.0711 15.411C74.1623 15.4682 75.0763 15.6724 75.1286 16.7399C75.1747 17.6785 74.3206 18.3199 73.0507 18.3822C71.7348 18.4467 70.812 17.8739 70.7072 16.8644ZM75.4969 16.6296L76.7299 16.5691C76.7962 16.981 77.1691 17.2486 77.804 17.2175C78.347 17.1909 78.6697 16.9998 78.6534 16.6685C78.6345 16.282 78.3111 16.2702 77.5423 16.2065C76.4318 16.1318 75.5638 15.9253 75.516 14.9499C75.47 14.0113 76.2587 13.3546 77.4738 13.3042C78.7437 13.242 79.6454 13.7604 79.7572 14.7235L78.5149 14.7844C78.4596 14.4089 78.0895 14.1965 77.565 14.2222C77.0589 14.247 76.7366 14.4473 76.7515 14.7509C76.7691 15.1098 77.1758 15.1268 77.8608 15.1762C78.952 15.2334 79.866 15.4376 79.9183 16.5051C79.9643 17.4437 79.1103 18.0851 77.8404 18.1473C76.5245 18.2119 75.6017 17.6391 75.4969 16.6296Z" fill="white"/>
</svg>
